<?xml version="1.0" encoding="UTF-8" standalone="no"?>
<!-- Generator: Gravit.io -->
<svg xmlns="http://www.w3.org/2000/svg" xmlns:xlink="http://www.w3.org/1999/xlink" style="isolation:isolate" viewBox="0 0 512 512" width="512pt" height="512pt"><defs><clipPath id="_clipPath_QK5nNgd5VL4Lsh9z3IrttQxYY6T8YKk0"><rect width="512" height="512"/></clipPath></defs><g clip-path="url(#_clipPath_QK5nNgd5VL4Lsh9z3IrttQxYY6T8YKk0)"><g><path d=" M 47.222 296.97 C 44.721 282.577 141.512 253.716 263.234 232.559 C 384.955 211.403 485.809 205.912 488.31 220.305 C 490.812 234.698 394.02 263.559 272.299 284.716 C 150.577 305.872 49.724 311.363 47.222 296.97 Z " fill="rgb(255,255,255)"/><path d=" M 45.445 290.744 C 42.943 276.351 139.735 247.489 261.456 226.333 C 383.178 205.176 484.031 199.685 486.533 214.078 C 489.034 228.471 392.243 257.332 270.521 278.489 C 148.8 299.645 47.946 305.136 45.445 290.744 Z " fill="rgb(0,0,0)"/><path d=" M 52.751 285.582 C 50.799 274.353 145.903 248.431 264.996 227.732 C 384.089 207.032 482.362 199.343 484.314 210.572 C 486.265 221.8 391.161 247.722 272.068 268.422 C 152.975 289.121 54.702 296.811 52.751 285.582 Z " fill="rgb(255,255,255)"/></g><g clip-path="url(#_clipPath_9xCJyWp0dFS2qFa0jcBtbMc15ydEUiYJ)"><text transform="matrix(1,0,0,1,127,360.538)" style="font-family:'Nova Square';font-weight:400;font-size:300px;font-style:normal;letter-spacing:-32;fill:#000000;stroke:none;">CI</text></g><defs><clipPath id="_clipPath_9xCJyWp0dFS2qFa0jcBtbMc15ydEUiYJ"><rect x="0" y="0" width="265" height="362.109" transform="matrix(1,0,0,1,127,72.55)"/></clipPath></defs><circle vector-effect="non-scaling-stroke" cx="417.49999999999966" cy="239.49999999999977" r="23.500000000000114" fill="rgb(0,0,0)"/><circle vector-effect="non-scaling-stroke" cx="94.00000000000006" cy="267" r="12.999999999999986" fill="rgb(0,0,0)"/><g opacity="0.65"><path d=" M 369 259 C 300.313 270.448 186 298 98.918 297.659 Q 87.752 297.616 68.918 434.659 L 418 406.659 Q 381 257 369 259 Z " fill="rgb(255,255,255)"/></g></g></svg>