<?xml version="1.0" encoding="UTF-8" standalone="no"?>
<!-- Created with Inkscape (http://www.inkscape.org/) -->

<svg
   xmlns:dc="http://purl.org/dc/elements/1.1/"
   xmlns:cc="http://creativecommons.org/ns#"
   xmlns:rdf="http://www.w3.org/1999/02/22-rdf-syntax-ns#"
   xmlns:svg="http://www.w3.org/2000/svg"
   xmlns="http://www.w3.org/2000/svg"
   xmlns:sodipodi="http://sodipodi.sourceforge.net/DTD/sodipodi-0.dtd"
   xmlns:inkscape="http://www.inkscape.org/namespaces/inkscape"
   version="1.1"
   id="svg3945"
   xml:space="preserve"
   width="588.24335"
   height="310.54883"
   viewBox="0 0 588.24335 310.54883"
   sodipodi:docname="Page_9.5_5.svg"
   inkscape:version="0.92.3 (2405546, 2018-03-11)"
   inkscape:export-filename="/home/czlowiekimadlo/Dropbox/Photos/blog/logo_front.png"
   inkscape:export-xdpi="89.758774"
   inkscape:export-ydpi="89.758774"><metadata
     id="metadata3951"><rdf:RDF><cc:Work
         rdf:about=""><dc:format>image/svg+xml</dc:format><dc:type
           rdf:resource="http://purl.org/dc/dcmitype/StillImage" /><dc:title></dc:title></cc:Work></rdf:RDF></metadata><defs
     id="defs3949"><clipPath
       clipPathUnits="userSpaceOnUse"
       id="clipPath3977"><path
         d="M 0,0 H 512 V 512 H 0 Z"
         id="path3975"
         inkscape:connector-curvature="0" /></clipPath></defs><sodipodi:namedview
     pagecolor="#ffffff"
     bordercolor="#666666"
     borderopacity="1"
     objecttolerance="10"
     gridtolerance="10"
     guidetolerance="10"
     inkscape:pageopacity="0"
     inkscape:pageshadow="2"
     inkscape:window-width="1920"
     inkscape:window-height="1025"
     id="namedview3947"
     showgrid="false"
     inkscape:pagecheckerboard="true"
     inkscape:zoom="1.4142136"
     inkscape:cx="195.1963"
     inkscape:cy="91.605536"
     inkscape:window-x="0"
     inkscape:window-y="27"
     inkscape:window-maximized="1"
     inkscape:current-layer="g3955"
     fit-margin-top="0"
     fit-margin-left="0"
     fit-margin-right="0"
     fit-margin-bottom="0" /><g
     id="g3953"
     inkscape:groupmode="layer"
     inkscape:label="Page_9.5"
     transform="matrix(1.3333333,0,0,-1.3333333,-60.530819,502.68425)"><g
       id="g3955"><path
         style="fill:#99aab5;fill-opacity:1;fill-rule:nonzero;stroke:none;stroke-width:0.28346458;stroke-miterlimit:4;stroke-dasharray:none;stroke-opacity:1"
         d="m 185.59424,228.83985 -29.29688,-3.5332 v -0.10107 -23.9751 c 0,-34.1796 17.08984,-51.26807 51.26954,-51.26807 h 45.41015 c 34.17971,0 51.26954,17.08847 51.26954,51.26807 v 29.29834 h -1.46485 l -27.83203,-13.1836 v -16.11474 c 0,-16.6015 -7.32426,-24.90088 -21.97266,-24.90088 H 207.5669 c -14.6484,0 -21.97266,8.29938 -21.97266,24.90088 v 27.56689 z"
         id="path835"
         inkscape:connector-curvature="0" /><path
         style="fill:#99aab5;fill-opacity:1;fill-rule:nonzero;stroke:none;stroke-width:0.99999994;stroke-opacity:1"
         d="m 360.13624,259.12843 -29.29688,-6.12012 V 144.10157 h 1.46485 l 27.83203,13.18506 z"
         id="path840"
         inkscape:connector-curvature="0" /><path
         style="fill:#ffffff;fill-opacity:1;fill-rule:nonzero;stroke:none;stroke-width:1.33333325;stroke-opacity:1"
         d="m 573.69336,275.14844 c -55.23532,1.95762 -135.93299,11.13324 -225.08594,26.6289 -62.36818,10.84026 -119.58631,23.19007 -166.50976,35.38672 l 0.20117,1.875 c 47.50915,-11.76978 106.27565,-24.14158 171.02929,-35.39648 87.52904,-15.21344 166.56646,-25.14173 220.36524,-28.49414 z"
         id="path3961"
         transform="matrix(0.75000002,0,0,-0.75000002,0,512.00002)"
         inkscape:connector-curvature="0" /><path
         style="fill:#99aab5;fill-opacity:1;fill-rule:nonzero;stroke:none;stroke-width:0.28346458;stroke-miterlimit:4;stroke-dasharray:none;stroke-opacity:1"
         d="m 207.5669,371.15383 c -34.1797,0 -51.26954,-17.08983 -51.26954,-51.26954 v -94.57764 l 29.29688,3.5332 v 91.04444 c 0,16.6016 7.32426,24.90235 21.97266,24.90235 h 45.41015 c 14.6484,0 21.97266,-8.30075 21.97266,-24.90235 v -29.29688 h 1.46484 l 27.83204,13.1836 v 16.11328 c 0,34.17971 -17.08983,51.26954 -51.26954,51.26954 z"
         id="path4879"
         inkscape:connector-curvature="0" /><path
         style="fill:#99aab5;fill-opacity:1;fill-rule:nonzero;stroke:none;stroke-width:0.99999994;stroke-opacity:1"
         d="M 358.6714,377.0132 330.83936,363.8296 V 253.00831 l 29.29688,6.12012 V 377.0132 Z"
         id="path3965"
         inkscape:connector-curvature="0" /><path
         style="fill:#ffffff;fill-opacity:1;fill-rule:nonzero;stroke:none;stroke-width:1.33333325;stroke-opacity:1"
         d="m 182.29883,339.03906 -0.20117,-1.875 C 106.91627,356.7057 58.539982,375.84237 60.59375,387.6582 c 3.335467,19.1904 137.80623,11.86883 300.10156,-16.33984 162.29533,-28.20853 291.35123,-66.69046 288.01563,-85.88086 -0.25084,-1.4432 -1.259,-2.7332 -2.94922,-3.87891 -1.81611,15.3712 -126.96158,49.21612 -283.00391,76.33789 -158.79079,27.59947 -289.821559,37.85051 -292.423826,22.87891 -1.541082,-8.86637 42.970676,-24.6439 111.964846,-41.73633 z"
         id="path864"
         transform="matrix(0.75000002,0,0,-0.75000002,0,512.00002)"
         inkscape:connector-curvature="0" /><path
         d="m 394,272.5 c 0,12.97 10.53,23.5 23.5,23.5 12.97,0 23.5,-10.53 23.5,-23.5 0,-12.97 -10.53,-23.5 -23.5,-23.5 -12.97,0 -23.5,10.53 -23.5,23.5 z"
         style="fill:#ffffff;fill-opacity:1;fill-rule:nonzero;stroke:none;stroke-opacity:1"
         id="path3967"
         inkscape:connector-curvature="0"
         inkscape:export-filename="/home/czlowiekimadlo/Projekty/czlowiekimadlo.pl/public/assets/images/homepage/logo_front_gray.png"
         inkscape:export-xdpi="96"
         inkscape:export-ydpi="96" /><path
         d="m 81,245 c 0,7.1749 5.8251,13 13,13 7.1749,0 13,-5.8251 13,-13 0,-7.1749 -5.8251,-13 -13,-13 -7.1749,0 -13,5.8251 -13,13 z"
         style="fill:#ffffff;fill-opacity:1;fill-rule:nonzero;stroke:none;stroke-opacity:1"
         id="path3969"
         inkscape:connector-curvature="0"
         inkscape:export-filename="/home/czlowiekimadlo/Projekty/czlowiekimadlo.pl/public/assets/images/homepage/logo_front_gray.png"
         inkscape:export-xdpi="96"
         inkscape:export-ydpi="96" /></g></g></svg>