<?xml version="1.0" encoding="UTF-8" standalone="no"?>
<!-- Created with Inkscape (http://www.inkscape.org/) -->

<svg
   xmlns:dc="http://purl.org/dc/elements/1.1/"
   xmlns:cc="http://creativecommons.org/ns#"
   xmlns:rdf="http://www.w3.org/1999/02/22-rdf-syntax-ns#"
   xmlns:svg="http://www.w3.org/2000/svg"
   xmlns="http://www.w3.org/2000/svg"
   xmlns:sodipodi="http://sodipodi.sourceforge.net/DTD/sodipodi-0.dtd"
   xmlns:inkscape="http://www.inkscape.org/namespaces/inkscape"
   version="1.1"
   id="svg3945"
   xml:space="preserve"
   width="682.66669"
   height="682.66669"
   viewBox="0 0 682.66669 682.66669"
   sodipodi:docname="Page_9.5_3.svg"
   inkscape:version="0.92.3 (2405546, 2018-03-11)"
   inkscape:export-filename="/home/czlowiekimadlo/Projekty/czlowiekimadlo.pl/public/assets/images/homepage/logo_front.png"
   inkscape:export-xdpi="97.91861"
   inkscape:export-ydpi="97.91861"><metadata
     id="metadata3951"><rdf:RDF><cc:Work
         rdf:about=""><dc:format>image/svg+xml</dc:format><dc:type
           rdf:resource="http://purl.org/dc/dcmitype/StillImage" /><dc:title></dc:title></cc:Work></rdf:RDF></metadata><defs
     id="defs3949"><clipPath
       clipPathUnits="userSpaceOnUse"
       id="clipPath3977"><path
         d="M 0,0 H 512 V 512 H 0 Z"
         id="path3975"
         inkscape:connector-curvature="0" /></clipPath></defs><sodipodi:namedview
     pagecolor="#ffffff"
     bordercolor="#666666"
     borderopacity="1"
     objecttolerance="10"
     gridtolerance="10"
     guidetolerance="10"
     inkscape:pageopacity="0"
     inkscape:pageshadow="2"
     inkscape:window-width="1920"
     inkscape:window-height="1025"
     id="namedview3947"
     showgrid="false"
     inkscape:pagecheckerboard="true"
     inkscape:zoom="0.97779607"
     inkscape:cx="216.73587"
     inkscape:cy="352.14951"
     inkscape:window-x="0"
     inkscape:window-y="27"
     inkscape:window-maximized="1"
     inkscape:current-layer="g3955" /><g
     id="g3953"
     inkscape:groupmode="layer"
     inkscape:label="Page_9.5"
     transform="matrix(1.3333333,0,0,-1.3333333,0,682.66667)"><g
       id="g3955"><path
         style="fill:#99aab5;fill-opacity:1;fill-rule:nonzero;stroke:#2c2f33;stroke-width:1.33333325;stroke-opacity:1"
         d="M 478.22852 177.98242 L 441.11914 195.56055 L 441.11914 287.50977 C 411.91185 291.4165 380.82588 296.17746 348.60742 301.77734 C 312.93258 307.97801 278.86843 314.67527 247.45898 321.55469 L 247.45898 254.1543 C 247.45898 232.01883 257.22466 220.95117 276.75586 220.95117 L 337.30273 220.95117 C 356.83393 220.95117 366.59961 232.01883 366.59961 254.1543 L 366.59961 293.2168 L 368.55273 293.2168 L 405.66211 275.63867 L 405.66211 254.1543 C 405.66211 208.58136 382.87567 185.79492 337.30273 185.79492 L 276.75586 185.79492 C 231.18293 185.79492 208.39648 208.58136 208.39648 254.1543 L 208.39648 330.53125 C 183.35085 336.57473 160.66016 342.65255 140.96875 348.5625 C 138.18088 342.71879 132.23525 338.66602 125.33398 338.66602 C 115.76745 338.66602 108 346.43347 108 356 C 108 357.09267 108.11288 358.15849 108.30664 359.19531 C 77.043037 370.37617 59.331883 380.39837 60.59375 387.6582 C 62.791082 400.30041 121.91352 401.43132 208.39648 392.66992 L 208.39648 412.35938 C 208.39648 457.93217 231.18293 480.7168 276.75586 480.7168 L 337.30273 480.7168 C 382.87567 480.7168 405.66211 457.93217 405.66211 412.35938 L 405.66211 373.29492 L 403.70898 373.29492 L 366.59961 390.87305 L 366.59961 412.35938 C 366.59961 434.49471 356.83393 445.56055 337.30273 445.56055 L 276.75586 445.56055 C 257.22466 445.56055 247.45898 434.49471 247.45898 412.35938 L 247.45898 388.26172 C 282.4965 383.93307 320.74479 378.26219 360.69531 371.31836 C 388.67273 366.45561 415.6252 361.28282 441.11914 355.96094 L 441.11914 488.53125 L 443.07227 488.53125 L 480.18164 470.95117 L 480.18164 347.42383 C 497.72797 343.40699 514.30256 339.35281 529.72266 335.31641 C 535.18749 344.50309 545.21017 350.66602 556.66602 350.66602 C 573.95935 350.66602 588 336.62732 588 319.33398 C 588 319.00711 587.98457 318.68385 587.97461 318.35938 C 627.26579 305.39848 650.13835 293.6497 648.71094 285.4375 C 648.4601 283.9943 647.45194 282.7043 645.76172 281.55859 C 645.0063 287.95232 622.85981 297.54659 586.08008 308.51953 C 581.67208 296.54812 570.15938 288 556.66602 288 C 539.37268 288 525.33398 302.04065 525.33398 319.33398 C 525.33398 321.12076 525.49143 322.8688 525.7793 324.57422 C 511.50448 328.03013 496.25715 331.52888 480.18164 335.03125 L 480.18164 284.44336 C 515.94883 279.91916 547.77157 276.76372 573.69336 275.14844 C 547.61787 276.07259 515.81692 278.62499 480.18164 282.67188 L 480.18164 177.98242 L 478.22852 177.98242 z M 441.11914 289.71484 L 441.11914 343.21289 C 416.2567 348.22256 389.99442 353.16248 362.75781 357.89648 C 321.90655 364.99685 282.92156 370.9395 247.45898 375.60938 L 247.45898 324.02148 C 280.11974 317.07365 315.81167 310.16335 353.32812 303.64258 C 383.87706 298.33286 413.35093 293.6821 441.11914 289.71484 z M 208.39648 332.68164 L 208.39648 380.39648 C 127.03256 389.58235 72.010441 390.42054 70.333984 380.77539 C 69.452972 375.70663 83.44334 368.38855 108.44727 359.85938 C 110.2054 367.56836 117.09561 373.33398 125.33398 373.33398 C 134.90052 373.33398 142.66602 365.56653 142.66602 356 C 142.66602 353.7683 142.22857 351.6417 141.45898 349.68164 C 160.71242 344.22887 183.29625 338.4931 208.39648 332.68164 z "
         transform="matrix(0.75000002,0,0,-0.75000002,0,512.00002)"
         id="path3961"
         inkscape:export-filename="/home/czlowiekimadlo/Projekty/czlowiekimadlo.pl/public/assets/images/homepage/logo_front_gray.png"
         inkscape:export-xdpi="97"
         inkscape:export-ydpi="97" /></g></g></svg>