<?xml version="1.0" encoding="UTF-8" standalone="no"?>
<!-- Created with Inkscape (http://www.inkscape.org/) -->

<svg
   xmlns:dc="http://purl.org/dc/elements/1.1/"
   xmlns:cc="http://creativecommons.org/ns#"
   xmlns:rdf="http://www.w3.org/1999/02/22-rdf-syntax-ns#"
   xmlns:svg="http://www.w3.org/2000/svg"
   xmlns="http://www.w3.org/2000/svg"
   xmlns:sodipodi="http://sodipodi.sourceforge.net/DTD/sodipodi-0.dtd"
   xmlns:inkscape="http://www.inkscape.org/namespaces/inkscape"
   version="1.1"
   id="svg3945"
   xml:space="preserve"
   width="682.66669"
   height="682.66669"
   viewBox="0 0 682.66669 682.66669"
   sodipodi:docname="Page_9.5_2.svg"
   inkscape:version="0.92.3 (2405546, 2018-03-11)"><metadata
     id="metadata3951"><rdf:RDF><cc:Work
         rdf:about=""><dc:format>image/svg+xml</dc:format><dc:type
           rdf:resource="http://purl.org/dc/dcmitype/StillImage" /><dc:title></dc:title></cc:Work></rdf:RDF></metadata><defs
     id="defs3949"><clipPath
       clipPathUnits="userSpaceOnUse"
       id="clipPath3977"><path
         d="M 0,0 H 512 V 512 H 0 Z"
         id="path3975"
         inkscape:connector-curvature="0" /></clipPath></defs><sodipodi:namedview
     pagecolor="#ffffff"
     bordercolor="#666666"
     borderopacity="1"
     objecttolerance="10"
     gridtolerance="10"
     guidetolerance="10"
     inkscape:pageopacity="0"
     inkscape:pageshadow="2"
     inkscape:window-width="1920"
     inkscape:window-height="1025"
     id="namedview3947"
     showgrid="false"
     inkscape:pagecheckerboard="true"
     inkscape:zoom="0.97779607"
     inkscape:cx="575.70643"
     inkscape:cy="474.87448"
     inkscape:window-x="0"
     inkscape:window-y="27"
     inkscape:window-maximized="1"
     inkscape:current-layer="g3955" /><g
     id="g3953"
     inkscape:groupmode="layer"
     inkscape:label="Page_9.5"
     transform="matrix(1.3333333,0,0,-1.3333333,0,682.66667)"><g
       id="g3955"><path
         style="fill:#ffffff;fill-opacity:1;fill-rule:nonzero;stroke:none;stroke-width:1.33333325"
         d="M 573.69336 275.14844 C 518.45804 277.10606 437.76037 286.28168 348.60742 301.77734 C 186.31209 329.98601 57.25815 368.46767 60.59375 387.6582 C 63.929217 406.8486 198.39998 399.52703 360.69531 371.31836 C 522.99064 343.10983 652.04654 304.6279 648.71094 285.4375 C 648.4601 283.9943 647.45194 282.7043 645.76172 281.55859 C 643.94561 296.92979 518.80014 330.77471 362.75781 357.89648 C 203.96702 385.49595 72.936251 395.74699 70.333984 380.77539 C 67.731718 365.80366 194.53733 331.24218 353.32812 303.64258 C 440.85715 288.42914 519.89458 278.50085 573.69336 275.14844 z "
         transform="matrix(0.75000002,0,0,-0.75000002,0,512.00002)"
         id="path3961" /><path
         d="m 252.9766,151.4617 h -45.4102 v 0 c -34.1797,0 -51.2695,17.0899 -51.2695,51.2695 v 0 118.6524 0 c 0,34.1797 17.0898,51.2695 51.2695,51.2695 v 0 h 45.4102 v 0 c 34.1797,0 51.2695,-17.0898 51.2695,-51.2695 v 0 -16.1133 l -27.832,-13.1836 h -1.4649 v 29.2969 0 c 0,16.6016 -7.3242,24.9023 -21.9726,24.9023 v 0 h -45.4102 v 0 c -14.6484,0 -21.9726,-8.3007 -21.9726,-24.9023 v 0 -118.6524 0 c 0,-16.6015 7.3242,-24.9023 21.9726,-24.9023 v 0 h 45.4102 v 0 c 14.6484,0 21.9726,8.3008 21.9726,24.9023 v 0 16.1133 l 27.8321,13.1836 h 1.4648 v -29.2969 0 c 0,-34.1796 -17.0898,-51.2695 -51.2695,-51.2695 v 0 z m 79.3281,-5.8594 h -1.4649 v 219.7266 l 27.8321,13.1836 h 1.4648 V 158.7859 l -27.832,-13.1836 z"
         style="fill:#ffffff;fill-opacity:1;fill-rule:nonzero;stroke:none"
         id="path3965"
         inkscape:connector-curvature="0"
         inkscape:export-filename="/home/czlowiekimadlo/Projekty/czlowiekimadlo.pl/public/assets/images/homepage/logo_front.png"
         inkscape:export-xdpi="96"
         inkscape:export-ydpi="96" /><path
         d="m 394,272.5 c 0,12.97 10.53,23.5 23.5,23.5 12.97,0 23.5,-10.53 23.5,-23.5 0,-12.97 -10.53,-23.5 -23.5,-23.5 -12.97,0 -23.5,10.53 -23.5,23.5 z"
         style="fill:#ffffff;fill-opacity:1;fill-rule:nonzero;stroke:none"
         id="path3967"
         inkscape:connector-curvature="0"
         inkscape:export-filename="/home/czlowiekimadlo/Projekty/czlowiekimadlo.pl/public/assets/images/homepage/logo_front.png"
         inkscape:export-xdpi="96"
         inkscape:export-ydpi="96" /><path
         d="m 81,245 c 0,7.1749 5.8251,13 13,13 7.1749,0 13,-5.8251 13,-13 0,-7.1749 -5.8251,-13 -13,-13 -7.1749,0 -13,5.8251 -13,13 z"
         style="fill:#ffffff;fill-opacity:1;fill-rule:nonzero;stroke:none"
         id="path3969"
         inkscape:connector-curvature="0"
         inkscape:export-filename="/home/czlowiekimadlo/Projekty/czlowiekimadlo.pl/public/assets/images/homepage/logo_front.png"
         inkscape:export-xdpi="96"
         inkscape:export-ydpi="96" /></g></g></svg>